<?xml version="1.0" encoding="UTF-8" standalone="no"?>
<!DOCTYPE svg PUBLIC "-//W3C//DTD SVG 1.1//EN" "http://www.w3.org/Graphics/SVG/1.1/DTD/svg11.dtd">
<svg width="100%" height="100%" viewBox="0 0 197 385" version="1.1" xmlns="http://www.w3.org/2000/svg" xmlns:xlink="http://www.w3.org/1999/xlink" xml:space="preserve" style="fill-rule:evenodd;clip-rule:evenodd;stroke-linejoin:round;stroke-miterlimit:1.41421;">
    <g transform="matrix(1,0,0,1,-1801,-106)">
        <g transform="matrix(1,0,0,1,118.097,-408)">
            <g transform="matrix(0.409317,0,0,0.409317,1080,426.245)">
                <path d="M1925.26,1154.04L1499.58,1154.04C1484.91,1154.04 1473,1142.13 1473,1127.46L1473,618.979L1951.83,618.979L1951.83,1127.46C1951.83,1142.13 1939.92,1154.04 1925.26,1154.04ZM1534.5,670L1527.5,670C1525.57,670 1524,671.568 1524,673.5L1524,762.5C1524,764.432 1525.57,766 1527.5,766L1534.5,766C1536.43,766 1538,764.432 1538,762.5L1538,673.5C1538,671.568 1536.43,670 1534.5,670ZM1951.83,588.979L1473,588.979L1473,242.576C1473,227.909 1484.91,216 1499.58,216L1925.26,216C1939.92,216 1951.83,227.909 1951.83,242.576L1951.83,588.979ZM1531,351.5C1531,349.568 1529.43,348 1527.5,348L1520.5,348C1518.57,348 1517,349.568 1517,351.5L1517,440.5C1517,442.432 1518.57,444 1520.5,444L1527.5,444C1529.43,444 1531,442.432 1531,440.5L1531,351.5Z" style="fill:white;"/>
                <path d="M1951.83,1127.46L1951.83,1127.8L1951.83,1128.15L1951.81,1128.49L1951.8,1128.83L1951.78,1129.17L1951.76,1129.5L1951.73,1129.84L1951.7,1130.18L1951.66,1130.51L1951.62,1130.84L1951.58,1131.17L1951.53,1131.51L1951.47,1131.83L1951.42,1132.16L1951.36,1132.49L1951.29,1132.81L1951.22,1133.14L1951.15,1133.46L1951.08,1133.78L1951,1134.1L1950.91,1134.42L1950.82,1134.73L1950.73,1135.05L1950.64,1135.36L1950.54,1135.67L1950.44,1135.98L1950.33,1136.29L1950.22,1136.59L1950.11,1136.9L1949.99,1137.2L1949.87,1137.5L1949.74,1137.8L1949.62,1138.1L1949.48,1138.39L1949.35,1138.69L1949.21,1138.98L1949.07,1139.27L1948.92,1139.56L1948.78,1139.84L1948.62,1140.12L1948.47,1140.4L1948.31,1140.68L1948.15,1140.96L1947.98,1141.24L1947.82,1141.51L1947.64,1141.78L1947.47,1142.05L1947.29,1142.32L1947.11,1142.58L1946.93,1142.84L1946.74,1143.1L1946.55,1143.36L1946.36,1143.61L1946.16,1143.86L1945.96,1144.11L1945.76,1144.36L1945.56,1144.61L1945.35,1144.85L1945.14,1145.09L1944.93,1145.33L1944.71,1145.56L1944.49,1145.79L1944.27,1146.02L1944.05,1146.25L1943.82,1146.47L1943.59,1146.69L1943.36,1146.91L1943.12,1147.13L1942.88,1147.34L1942.64,1147.55L1942.4,1147.76L1942.16,1147.96L1941.91,1148.17L1941.66,1148.37L1941.41,1148.56L1941.15,1148.75L1940.9,1148.94L1940.64,1149.13L1940.38,1149.31L1940.11,1149.5L1939.85,1149.67L1939.58,1149.85L1939.31,1150.02L1939.03,1150.19L1938.76,1150.35L1938.48,1150.51L1938.2,1150.67L1937.92,1150.83L1937.64,1150.98L1937.35,1151.13L1937.06,1151.27L1936.78,1151.41L1936.48,1151.55L1936.19,1151.69L1935.89,1151.82L1935.6,1151.95L1935.3,1152.07L1935,1152.19L1934.69,1152.31L1934.39,1152.42L1934.09,1152.53L1933.78,1152.64L1933.47,1152.74L1933.16,1152.84L1932.84,1152.94L1932.53,1153.03L1932.21,1153.12L1931.89,1153.2L1931.58,1153.28L1931.26,1153.36L1930.93,1153.43L1930.61,1153.5L1930.29,1153.56L1929.96,1153.62L1929.63,1153.68L1929.3,1153.73L1928.97,1153.78L1928.64,1153.82L1928.31,1153.86L1927.97,1153.9L1927.64,1153.93L1927.3,1153.96L1926.96,1153.98L1926.62,1154L1926.28,1154.02L1925.94,1154.03L1925.6,1154.03L1925.26,1154.04L1499.58,1154.04L1499.23,1154.03L1498.89,1154.03L1498.55,1154.02L1498.21,1154L1497.87,1153.98L1497.53,1153.96L1497.2,1153.93L1496.86,1153.9L1496.53,1153.86L1496.19,1153.82L1495.86,1153.78L1495.53,1153.73L1495.2,1153.68L1494.88,1153.62L1494.55,1153.56L1494.22,1153.5L1493.9,1153.43L1493.58,1153.36L1493.26,1153.28L1492.94,1153.2L1492.62,1153.12L1492.3,1153.03L1491.99,1152.94L1491.68,1152.84L1491.37,1152.74L1491.06,1152.64L1490.75,1152.53L1490.44,1152.42L1490.14,1152.31L1489.84,1152.19L1489.54,1152.07L1489.24,1151.95L1488.94,1151.82L1488.64,1151.69L1488.35,1151.55L1488.06,1151.41L1487.77,1151.27L1487.48,1151.13L1487.2,1150.98L1486.91,1150.83L1486.63,1150.67L1486.35,1150.51L1486.08,1150.35L1485.8,1150.19L1485.53,1150.02L1485.26,1149.85L1484.99,1149.67L1484.72,1149.5L1484.46,1149.31L1484.2,1149.13L1483.94,1148.94L1483.68,1148.75L1483.42,1148.56L1483.17,1148.37L1482.92,1148.17L1482.67,1147.96L1482.43,1147.76L1482.19,1147.55L1481.95,1147.34L1481.71,1147.13L1481.48,1146.91L1481.24,1146.69L1481.02,1146.47L1480.79,1146.25L1480.56,1146.02L1480.34,1145.79L1480.12,1145.56L1479.91,1145.33L1479.69,1145.09L1479.48,1144.85L1479.28,1144.61L1479.07,1144.36L1478.87,1144.11L1478.67,1143.86L1478.48,1143.61L1478.28,1143.36L1478.09,1143.1L1477.91,1142.84L1477.72,1142.58L1477.54,1142.32L1477.36,1142.05L1477.19,1141.78L1477.02,1141.51L1476.85,1141.24L1476.68,1140.96L1476.52,1140.68L1476.37,1140.4L1476.21,1140.12L1476.06,1139.84L1475.91,1139.56L1475.76,1139.27L1475.62,1138.98L1475.48,1138.69L1475.35,1138.39L1475.22,1138.1L1475.09,1137.8L1474.97,1137.5L1474.85,1137.2L1474.73,1136.9L1474.61,1136.59L1474.5,1136.29L1474.4,1135.98L1474.3,1135.67L1474.2,1135.36L1474.1,1135.05L1474.01,1134.73L1473.92,1134.42L1473.84,1134.1L1473.76,1133.78L1473.68,1133.46L1473.61,1133.14L1473.54,1132.81L1473.48,1132.49L1473.41,1132.16L1473.36,1131.83L1473.31,1131.51L1473.26,1131.17L1473.21,1130.84L1473.17,1130.51L1473.14,1130.18L1473.11,1129.84L1473.08,1129.5L1473.05,1129.17L1473.04,1128.83L1473.02,1128.49L1473.01,1128.15L1473,1127.8L1473,1127.46L1473,618.979L1951.83,618.979L1951.83,1127.46ZM1480.63,626.613L1480.63,1127.43L1480.64,1127.71L1480.64,1127.95L1480.65,1128.19L1480.66,1128.44L1480.67,1128.68L1480.69,1128.93L1480.71,1129.16L1480.73,1129.4L1480.76,1129.64L1480.79,1129.88L1480.82,1130.12L1480.85,1130.35L1480.89,1130.59L1480.93,1130.82L1480.97,1131.05L1481.02,1131.28L1481.07,1131.51L1481.12,1131.74L1481.17,1131.97L1481.23,1132.19L1481.29,1132.42L1481.35,1132.64L1481.42,1132.87L1481.49,1133.09L1481.56,1133.31L1481.63,1133.53L1481.7,1133.75L1481.78,1133.97L1481.86,1134.18L1481.95,1134.4L1482.03,1134.61L1482.12,1134.82L1482.21,1135.04L1482.31,1135.25L1482.4,1135.46L1482.5,1135.66L1482.6,1135.87L1482.7,1136.08L1482.81,1136.28L1482.92,1136.48L1483.03,1136.68L1483.14,1136.88L1483.26,1137.08L1483.38,1137.27L1483.49,1137.46L1483.62,1137.66L1483.74,1137.85L1483.87,1138.04L1484,1138.23L1484.13,1138.42L1484.26,1138.6L1484.4,1138.78L1484.54,1138.97L1484.67,1139.14L1484.82,1139.32L1484.96,1139.5L1485.11,1139.68L1485.26,1139.85L1485.4,1140.02L1485.56,1140.19L1485.71,1140.36L1485.87,1140.53L1486.03,1140.69L1486.19,1140.85L1486.35,1141.01L1486.51,1141.17L1486.68,1141.33L1486.85,1141.48L1487.02,1141.63L1487.19,1141.78L1487.36,1141.93L1487.53,1142.08L1487.71,1142.22L1487.89,1142.36L1488.07,1142.5L1488.25,1142.64L1488.44,1142.78L1488.62,1142.91L1488.81,1143.04L1489,1143.17L1489.18,1143.3L1489.38,1143.42L1489.57,1143.54L1489.77,1143.66L1489.96,1143.78L1490.16,1143.9L1490.36,1144.01L1490.56,1144.12L1490.76,1144.23L1490.96,1144.33L1491.17,1144.44L1491.37,1144.54L1491.58,1144.64L1491.79,1144.73L1492,1144.83L1492.21,1144.92L1492.42,1145L1492.64,1145.09L1492.85,1145.17L1493.07,1145.25L1493.29,1145.33L1493.51,1145.41L1493.73,1145.48L1493.95,1145.55L1494.17,1145.62L1494.39,1145.68L1494.62,1145.75L1494.84,1145.81L1495.07,1145.86L1495.3,1145.92L1495.53,1145.97L1495.76,1146.02L1495.99,1146.06L1496.22,1146.11L1496.45,1146.15L1496.68,1146.18L1496.92,1146.22L1497.16,1146.25L1497.39,1146.28L1497.63,1146.3L1497.87,1146.33L1498.11,1146.35L1498.35,1146.36L1498.6,1146.38L1498.84,1146.39L1499.09,1146.39L1499.33,1146.4L1499.6,1146.4L1925.23,1146.4L1925.5,1146.4L1925.75,1146.39L1925.99,1146.39L1926.24,1146.38L1926.48,1146.36L1926.72,1146.35L1926.96,1146.33L1927.2,1146.3L1927.44,1146.28L1927.67,1146.25L1927.91,1146.22L1928.15,1146.18L1928.38,1146.15L1928.61,1146.11L1928.85,1146.06L1929.08,1146.02L1929.31,1145.97L1929.54,1145.92L1929.76,1145.86L1929.99,1145.81L1930.22,1145.75L1930.44,1145.68L1930.66,1145.62L1930.89,1145.55L1931.11,1145.48L1931.33,1145.41L1931.55,1145.33L1931.76,1145.26L1931.98,1145.17L1932.2,1145.09L1932.41,1145.01L1932.62,1144.92L1932.83,1144.83L1933.04,1144.73L1933.25,1144.63L1933.46,1144.54L1933.67,1144.44L1933.87,1144.33L1934.07,1144.23L1934.28,1144.12L1934.48,1144.01L1934.67,1143.9L1934.87,1143.78L1935.07,1143.66L1935.26,1143.54L1935.46,1143.42L1935.65,1143.3L1935.84,1143.17L1936.03,1143.04L1936.21,1142.91L1936.4,1142.78L1936.58,1142.64L1936.76,1142.5L1936.94,1142.36L1937.12,1142.22L1937.3,1142.08L1937.47,1141.93L1937.64,1141.78L1937.82,1141.63L1937.99,1141.48L1938.15,1141.33L1938.32,1141.17L1938.49,1141.01L1938.65,1140.85L1938.81,1140.69L1938.96,1140.53L1939.12,1140.36L1939.28,1140.19L1939.43,1140.02L1939.58,1139.85L1939.73,1139.68L1939.87,1139.5L1940.02,1139.32L1940.16,1139.14L1940.3,1138.97L1940.44,1138.78L1940.57,1138.6L1940.7,1138.42L1940.84,1138.23L1940.97,1138.04L1941.09,1137.85L1941.22,1137.66L1941.34,1137.46L1941.46,1137.27L1941.58,1137.08L1941.69,1136.88L1941.81,1136.68L1941.92,1136.48L1942.03,1136.27L1942.13,1136.08L1942.23,1135.87L1942.34,1135.66L1942.43,1135.45L1942.53,1135.25L1942.62,1135.04L1942.71,1134.82L1942.8,1134.61L1942.89,1134.4L1942.97,1134.18L1943.05,1133.97L1943.13,1133.75L1943.2,1133.53L1943.28,1133.31L1943.35,1133.09L1943.41,1132.87L1943.48,1132.64L1943.54,1132.42L1943.6,1132.19L1943.66,1131.97L1943.71,1131.74L1943.77,1131.51L1943.81,1131.28L1943.86,1131.05L1943.9,1130.82L1943.94,1130.59L1943.98,1130.35L1944.01,1130.12L1944.05,1129.88L1944.08,1129.64L1944.1,1129.41L1944.12,1129.16L1944.14,1128.92L1944.16,1128.68L1944.17,1128.44L1944.18,1128.19L1944.19,1127.95L1944.2,1127.71L1944.2,1127.43L1944.2,626.613L1480.63,626.613ZM1534.78,662.368L1535.07,662.379L1535.35,662.397L1535.63,662.422L1535.91,662.454L1536.19,662.493L1536.46,662.539L1536.74,662.591L1537.01,662.65L1537.28,662.716L1537.55,662.789L1537.81,662.867L1538.07,662.951L1538.33,663.044L1538.59,663.141L1538.84,663.244L1539.09,663.353L1539.33,663.466L1539.58,663.591L1539.81,663.714L1540.04,663.842L1540.28,663.984L1540.51,664.125L1540.74,664.275L1540.95,664.425L1541.16,664.58L1541.38,664.748L1541.58,664.909L1541.79,665.082L1541.99,665.264L1542.18,665.442L1542.37,665.624L1542.56,665.816L1542.74,666.013L1542.92,666.213L1543.09,666.415L1543.25,666.619L1543.42,666.837L1543.57,667.047L1543.72,667.259L1543.88,667.496L1544.02,667.724L1544.15,667.94L1544.29,668.184L1544.41,668.431L1544.53,668.665L1544.65,668.914L1544.76,669.166L1544.86,669.418L1544.96,669.67L1545.05,669.924L1545.13,670.194L1545.21,670.448L1545.28,670.719L1545.35,670.989L1545.41,671.26L1545.46,671.547L1545.51,671.817L1545.55,672.087L1545.58,672.371L1545.6,672.656L1545.62,672.938L1545.63,673.22L1545.63,673.453L1545.63,762.547L1545.63,762.78L1545.62,763.062L1545.6,763.345L1545.58,763.628L1545.55,763.913L1545.51,764.183L1545.46,764.454L1545.41,764.74L1545.35,765.011L1545.28,765.28L1545.21,765.551L1545.13,765.807L1545.05,766.075L1544.96,766.33L1544.86,766.583L1544.76,766.834L1544.65,767.086L1544.53,767.336L1544.41,767.569L1544.29,767.814L1544.15,768.059L1544.01,768.29L1543.88,768.504L1543.73,768.729L1543.57,768.954L1543.42,769.162L1543.26,769.38L1543.09,769.586L1542.92,769.787L1542.74,769.987L1542.56,770.183L1542.37,770.378L1542.18,770.557L1541.99,770.736L1541.79,770.92L1541.58,771.091L1541.39,771.25L1541.16,771.421L1540.95,771.576L1540.74,771.724L1540.51,771.876L1540.27,772.022L1540.04,772.157L1539.81,772.286L1539.58,772.409L1539.34,772.53L1539.08,772.648L1538.84,772.756L1538.58,772.861L1538.33,772.956L1538.07,773.047L1537.81,773.133L1537.55,773.211L1537.28,773.284L1537.01,773.349L1536.74,773.409L1536.46,773.462L1536.19,773.506L1535.91,773.546L1535.63,773.578L1535.35,773.603L1535.07,773.621L1534.78,773.632L1534.55,773.635L1527.45,773.635L1527.22,773.632L1526.93,773.621L1526.65,773.603L1526.37,773.578L1526.09,773.546L1525.81,773.506L1525.54,773.462L1525.26,773.409L1524.99,773.349L1524.72,773.284L1524.45,773.211L1524.19,773.133L1523.93,773.049L1523.67,772.956L1523.41,772.859L1523.16,772.756L1522.92,772.648L1522.67,772.533L1522.42,772.412L1522.19,772.286L1521.95,772.153L1521.72,772.017L1521.49,771.876L1521.26,771.724L1521.05,771.576L1520.84,771.421L1520.61,771.25L1520.42,771.091L1520.21,770.92L1520.01,770.736L1519.82,770.557L1519.63,770.378L1519.44,770.183L1519.26,769.987L1519.08,769.787L1518.91,769.586L1518.75,769.38L1518.58,769.162L1518.43,768.954L1518.28,768.74L1518.13,768.516L1517.98,768.277L1517.84,768.046L1517.71,767.814L1517.59,767.569L1517.47,767.336L1517.35,767.086L1517.24,766.834L1517.14,766.583L1517.04,766.33L1516.95,766.075L1516.87,765.807L1516.79,765.551L1516.72,765.28L1516.65,765.011L1516.59,764.74L1516.54,764.454L1516.49,764.183L1516.45,763.913L1516.42,763.628L1516.4,763.345L1516.38,763.062L1516.37,762.796L1516.37,762.563L1516.37,673.437L1516.37,673.204L1516.38,672.938L1516.4,672.656L1516.42,672.371L1516.45,672.087L1516.49,671.817L1516.54,671.547L1516.59,671.26L1516.65,670.989L1516.72,670.719L1516.79,670.448L1516.87,670.194L1516.95,669.924L1517.04,669.67L1517.14,669.418L1517.24,669.166L1517.35,668.914L1517.47,668.665L1517.59,668.431L1517.71,668.184L1517.85,667.953L1517.98,667.724L1518.13,667.484L1518.28,667.259L1518.43,667.047L1518.58,666.837L1518.74,666.629L1518.91,666.415L1519.09,666.203L1519.26,666.013L1519.44,665.816L1519.63,665.624L1519.82,665.442L1520.01,665.264L1520.2,665.089L1520.42,664.909L1520.62,664.742L1520.84,664.58L1521.05,664.425L1521.26,664.275L1521.49,664.125L1521.72,663.984L1521.95,663.846L1522.19,663.714L1522.42,663.588L1522.67,663.466L1522.91,663.353L1523.16,663.244L1523.41,663.141L1523.67,663.044L1523.93,662.951L1524.19,662.867L1524.45,662.789L1524.72,662.716L1524.99,662.65L1525.26,662.591L1525.54,662.539L1525.81,662.493L1526.09,662.454L1526.37,662.422L1526.65,662.397L1526.93,662.379L1527.22,662.368L1527.45,662.365L1534.55,662.365L1534.78,662.368ZM1527.5,670L1527.41,670.001L1527.32,670.005L1527.23,670.01L1527.14,670.018L1527.05,670.028L1526.97,670.04L1526.88,670.055L1526.8,670.071L1526.71,670.09L1526.63,670.11L1526.54,670.133L1526.46,670.157L1526.38,670.184L1526.3,670.213L1526.22,670.243L1526.14,670.275L1526.06,670.309L1525.98,670.345L1525.91,670.383L1525.83,670.423L1525.76,670.464L1525.69,670.507L1525.61,670.552L1525.54,670.598L1525.47,670.646L1525.41,670.696L1525.34,670.747L1525.27,670.8L1525.21,670.854L1525.15,670.91L1525.09,670.967L1525.03,671.026L1524.97,671.086L1524.91,671.147L1524.85,671.21L1524.8,671.274L1524.75,671.34L1524.7,671.406L1524.65,671.474L1524.6,671.544L1524.55,671.614L1524.51,671.686L1524.46,671.758L1524.42,671.832L1524.38,671.907L1524.35,671.983L1524.31,672.06L1524.28,672.138L1524.24,672.217L1524.21,672.297L1524.18,672.378L1524.16,672.46L1524.13,672.542L1524.11,672.626L1524.09,672.71L1524.07,672.795L1524.06,672.881L1524.04,672.967L1524.03,673.054L1524.02,673.142L1524.01,673.231L1524.01,673.32L1524,673.41L1524,673.5L1524,762.5L1524,762.59L1524.01,762.68L1524.01,762.769L1524.02,762.858L1524.03,762.946L1524.04,763.033L1524.06,763.119L1524.07,763.205L1524.09,763.29L1524.11,763.374L1524.13,763.458L1524.16,763.54L1524.18,763.622L1524.21,763.703L1524.24,763.783L1524.28,763.862L1524.31,763.94L1524.35,764.017L1524.38,764.093L1524.42,764.168L1524.46,764.242L1524.51,764.314L1524.55,764.386L1524.6,764.456L1524.65,764.526L1524.7,764.594L1524.75,764.66L1524.8,764.726L1524.85,764.79L1524.91,764.853L1524.97,764.914L1525.03,764.974L1525.09,765.033L1525.15,765.09L1525.21,765.146L1525.27,765.2L1525.34,765.253L1525.41,765.304L1525.47,765.354L1525.54,765.402L1525.61,765.448L1525.69,765.493L1525.76,765.536L1525.83,765.577L1525.91,765.617L1525.98,765.655L1526.06,765.691L1526.14,765.725L1526.22,765.757L1526.3,765.787L1526.38,765.816L1526.46,765.843L1526.54,765.867L1526.63,765.89L1526.71,765.91L1526.8,765.929L1526.88,765.945L1526.97,765.96L1527.05,765.972L1527.14,765.982L1527.23,765.99L1527.32,765.995L1527.41,765.999L1527.5,766L1534.5,766L1534.59,765.999L1534.68,765.995L1534.77,765.99L1534.86,765.982L1534.95,765.972L1535.03,765.96L1535.12,765.945L1535.2,765.929L1535.29,765.91L1535.37,765.89L1535.46,765.867L1535.54,765.843L1535.62,765.816L1535.7,765.787L1535.78,765.757L1535.86,765.725L1535.94,765.691L1536.02,765.655L1536.09,765.617L1536.17,765.577L1536.24,765.536L1536.31,765.493L1536.39,765.448L1536.46,765.402L1536.53,765.354L1536.59,765.304L1536.66,765.253L1536.73,765.2L1536.79,765.146L1536.85,765.09L1536.91,765.033L1536.97,764.974L1537.03,764.914L1537.09,764.853L1537.15,764.79L1537.2,764.726L1537.25,764.66L1537.3,764.594L1537.35,764.526L1537.4,764.456L1537.45,764.386L1537.49,764.314L1537.54,764.242L1537.58,764.168L1537.62,764.093L1537.65,764.017L1537.69,763.94L1537.73,763.862L1537.76,763.783L1537.79,763.703L1537.82,763.622L1537.84,763.54L1537.87,763.458L1537.89,763.374L1537.91,763.29L1537.93,763.205L1537.94,763.119L1537.96,763.033L1537.97,762.946L1537.98,762.858L1537.99,762.769L1538,762.68L1538,762.59L1538,762.5L1538,673.5L1538,673.41L1538,673.32L1537.99,673.231L1537.98,673.142L1537.97,673.054L1537.96,672.967L1537.94,672.881L1537.93,672.795L1537.91,672.71L1537.89,672.626L1537.87,672.542L1537.84,672.46L1537.82,672.378L1537.79,672.297L1537.76,672.217L1537.73,672.138L1537.69,672.06L1537.65,671.983L1537.62,671.907L1537.58,671.832L1537.54,671.758L1537.49,671.686L1537.45,671.614L1537.4,671.544L1537.35,671.474L1537.3,671.406L1537.25,671.34L1537.2,671.274L1537.15,671.21L1537.09,671.147L1537.03,671.086L1536.97,671.026L1536.91,670.967L1536.85,670.91L1536.79,670.854L1536.73,670.8L1536.66,670.747L1536.59,670.696L1536.53,670.646L1536.46,670.598L1536.39,670.552L1536.31,670.507L1536.24,670.464L1536.17,670.423L1536.09,670.383L1536.02,670.345L1535.94,670.309L1535.86,670.275L1535.78,670.243L1535.7,670.213L1535.62,670.184L1535.54,670.157L1535.46,670.133L1535.37,670.11L1535.29,670.09L1535.2,670.071L1535.12,670.055L1535.03,670.04L1534.95,670.028L1534.86,670.018L1534.77,670.01L1534.68,670.005L1534.59,670.001L1534.5,670L1527.5,670ZM1925.6,216.002L1925.94,216.009L1926.28,216.02L1926.62,216.035L1926.96,216.054L1927.3,216.078L1927.64,216.105L1927.97,216.137L1928.31,216.173L1928.64,216.214L1928.97,216.258L1929.3,216.306L1929.63,216.359L1929.96,216.415L1930.29,216.476L1930.61,216.54L1930.93,216.609L1931.26,216.681L1931.58,216.757L1931.89,216.837L1932.21,216.921L1932.53,217.009L1932.84,217.1L1933.16,217.196L1933.47,217.295L1933.78,217.397L1934.09,217.504L1934.39,217.614L1934.69,217.727L1935,217.845L1935.3,217.966L1935.6,218.09L1935.89,218.218L1936.19,218.349L1936.48,218.484L1936.78,218.622L1937.06,218.764L1937.35,218.909L1937.64,219.058L1937.92,219.21L1938.2,219.365L1938.48,219.523L1938.76,219.685L1939.03,219.85L1939.31,220.018L1939.58,220.189L1939.85,220.364L1940.11,220.542L1940.38,220.722L1940.64,220.906L1940.9,221.093L1941.15,221.283L1941.41,221.476L1941.66,221.672L1941.91,221.87L1942.16,222.072L1942.4,222.277L1942.64,222.484L1942.88,222.694L1943.12,222.908L1943.36,223.124L1943.59,223.342L1943.82,223.564L1944.05,223.788L1944.27,224.015L1944.49,224.244L1944.71,224.476L1944.93,224.711L1945.14,224.948L1945.35,225.188L1945.56,225.431L1945.76,225.676L1945.96,225.923L1946.16,226.173L1946.36,226.425L1946.55,226.68L1946.74,226.937L1946.93,227.196L1947.11,227.458L1947.29,227.722L1947.47,227.988L1947.64,228.256L1947.82,228.527L1947.98,228.8L1948.15,229.075L1948.31,229.352L1948.47,229.632L1948.62,229.913L1948.78,230.196L1948.92,230.482L1949.07,230.769L1949.21,231.059L1949.35,231.35L1949.48,231.644L1949.62,231.939L1949.74,232.236L1949.87,232.535L1949.99,232.836L1950.11,233.138L1950.22,233.443L1950.33,233.749L1950.44,234.056L1950.54,234.366L1950.64,234.677L1950.73,234.99L1950.82,235.304L1950.91,235.62L1951,235.938L1951.08,236.257L1951.15,236.578L1951.22,236.9L1951.29,237.223L1951.36,237.548L1951.42,237.875L1951.47,238.202L1951.53,238.531L1951.58,238.862L1951.62,239.194L1951.66,239.527L1951.7,239.861L1951.73,240.196L1951.76,240.533L1951.78,240.871L1951.8,241.21L1951.81,241.55L1951.83,241.891L1951.83,242.233L1951.83,242.576L1951.83,588.979L1473,588.979L1473,242.576L1473,242.233L1473.01,241.891L1473.02,241.55L1473.04,241.21L1473.05,240.871L1473.08,240.533L1473.11,240.196L1473.14,239.861L1473.17,239.527L1473.21,239.194L1473.26,238.862L1473.31,238.531L1473.36,238.202L1473.41,237.875L1473.48,237.548L1473.54,237.223L1473.61,236.9L1473.68,236.578L1473.76,236.257L1473.84,235.938L1473.92,235.62L1474.01,235.304L1474.1,234.99L1474.2,234.677L1474.3,234.366L1474.4,234.056L1474.5,233.749L1474.61,233.443L1474.73,233.138L1474.85,232.836L1474.96,232.535L1475.09,232.236L1475.22,231.939L1475.35,231.644L1475.48,231.35L1475.62,231.059L1475.76,230.769L1475.91,230.482L1476.06,230.196L1476.21,229.913L1476.37,229.632L1476.52,229.352L1476.68,229.075L1476.85,228.8L1477.02,228.527L1477.19,228.256L1477.36,227.988L1477.54,227.722L1477.72,227.458L1477.91,227.196L1478.09,226.937L1478.28,226.68L1478.48,226.425L1478.67,226.173L1478.87,225.923L1479.07,225.676L1479.28,225.431L1479.48,225.188L1479.69,224.948L1479.91,224.711L1480.12,224.476L1480.34,224.244L1480.56,224.015L1480.79,223.788L1481.02,223.564L1481.24,223.342L1481.48,223.124L1481.71,222.908L1481.95,222.694L1482.19,222.484L1482.43,222.277L1482.67,222.072L1482.92,221.87L1483.17,221.672L1483.42,221.476L1483.68,221.283L1483.94,221.093L1484.2,220.906L1484.46,220.722L1484.72,220.542L1484.99,220.364L1485.26,220.189L1485.53,220.018L1485.8,219.85L1486.08,219.685L1486.35,219.523L1486.63,219.365L1486.91,219.21L1487.2,219.058L1487.48,218.909L1487.77,218.764L1488.06,218.622L1488.35,218.484L1488.64,218.349L1488.94,218.218L1489.24,218.09L1489.54,217.966L1489.84,217.845L1490.14,217.727L1490.44,217.614L1490.75,217.504L1491.06,217.397L1491.37,217.295L1491.68,217.196L1491.99,217.1L1492.3,217.009L1492.62,216.921L1492.94,216.837L1493.26,216.757L1493.58,216.681L1493.9,216.609L1494.22,216.54L1494.55,216.476L1494.87,216.415L1495.2,216.359L1495.53,216.306L1495.86,216.258L1496.19,216.214L1496.53,216.173L1496.86,216.137L1497.2,216.105L1497.53,216.078L1497.87,216.054L1498.21,216.035L1498.55,216.02L1498.89,216.009L1499.23,216.002L1499.58,216L1925.26,216L1925.6,216.002ZM1499.6,223.635L1499.33,223.636L1499.09,223.641L1498.84,223.649L1498.6,223.66L1498.35,223.673L1498.11,223.69L1497.87,223.71L1497.63,223.733L1497.39,223.759L1497.16,223.787L1496.92,223.819L1496.68,223.854L1496.45,223.891L1496.22,223.931L1495.99,223.974L1495.76,224.02L1495.53,224.069L1495.3,224.12L1495.07,224.174L1494.84,224.231L1494.62,224.291L1494.39,224.353L1494.17,224.418L1493.95,224.486L1493.73,224.556L1493.51,224.629L1493.29,224.704L1493.07,224.782L1492.85,224.863L1492.64,224.947L1492.42,225.033L1492.21,225.121L1492,225.212L1491.79,225.305L1491.58,225.401L1491.38,225.5L1491.17,225.601L1490.96,225.704L1490.76,225.809L1490.56,225.918L1490.36,226.028L1490.16,226.141L1489.96,226.256L1489.77,226.373L1489.57,226.495L1489.38,226.617L1489.19,226.74L1489,226.867L1488.81,226.996L1488.62,227.128L1488.44,227.26L1488.25,227.397L1488.07,227.534L1487.89,227.673L1487.71,227.816L1487.53,227.961L1487.36,228.106L1487.19,228.255L1487.02,228.405L1486.85,228.557L1486.68,228.713L1486.51,228.867L1486.35,229.026L1486.19,229.187L1486.03,229.348L1485.87,229.513L1485.71,229.679L1485.56,229.846L1485.4,230.016L1485.26,230.185L1485.11,230.359L1484.96,230.536L1484.82,230.714L1484.67,230.892L1484.54,231.069L1484.4,231.254L1484.26,231.438L1484.13,231.621L1484,231.809L1483.87,231.996L1483.74,232.185L1483.62,232.379L1483.49,232.572L1483.38,232.764L1483.26,232.961L1483.14,233.16L1483.03,233.358L1482.92,233.561L1482.81,233.762L1482.7,233.962L1482.6,234.17L1482.5,234.377L1482.4,234.579L1482.31,234.79L1482.21,235.002L1482.12,235.213L1482.03,235.425L1481.95,235.636L1481.86,235.852L1481.78,236.069L1481.7,236.289L1481.63,236.506L1481.56,236.725L1481.49,236.946L1481.42,237.169L1481.35,237.393L1481.29,237.615L1481.23,237.843L1481.17,238.068L1481.12,238.295L1481.07,238.528L1481.02,238.758L1480.97,238.986L1480.93,239.215L1480.89,239.451L1480.85,239.687L1480.82,239.922L1480.79,240.158L1480.76,240.395L1480.73,240.635L1480.71,240.871L1480.69,241.109L1480.67,241.353L1480.66,241.599L1480.65,241.842L1480.64,242.083L1480.64,242.329L1480.63,242.601L1480.63,581.344L1944.2,581.344L1944.2,242.601L1944.2,242.329L1944.19,242.083L1944.18,241.842L1944.17,241.599L1944.16,241.353L1944.14,241.114L1944.12,240.871L1944.1,240.63L1944.08,240.395L1944.05,240.158L1944.01,239.922L1943.98,239.687L1943.94,239.451L1943.9,239.215L1943.86,238.986L1943.81,238.758L1943.77,238.528L1943.71,238.295L1943.66,238.068L1943.6,237.843L1943.54,237.615L1943.48,237.393L1943.41,237.169L1943.35,236.946L1943.28,236.725L1943.2,236.506L1943.13,236.289L1943.05,236.069L1942.97,235.852L1942.89,235.636L1942.8,235.425L1942.71,235.213L1942.62,235.002L1942.53,234.79L1942.43,234.579L1942.34,234.377L1942.23,234.17L1942.13,233.962L1942.02,233.762L1941.92,233.561L1941.81,233.358L1941.69,233.16L1941.58,232.961L1941.46,232.764L1941.34,232.572L1941.22,232.379L1941.09,232.185L1940.97,231.996L1940.84,231.809L1940.7,231.621L1940.57,231.438L1940.44,231.254L1940.3,231.069L1940.16,230.892L1940.02,230.714L1939.87,230.536L1939.73,230.359L1939.58,230.185L1939.43,230.016L1939.28,229.846L1939.12,229.679L1938.97,229.513L1938.81,229.348L1938.65,229.187L1938.49,229.028L1938.32,228.867L1938.15,228.711L1937.99,228.557L1937.82,228.405L1937.65,228.255L1937.47,228.106L1937.3,227.961L1937.12,227.816L1936.94,227.674L1936.76,227.534L1936.58,227.395L1936.4,227.26L1936.21,227.128L1936.03,226.996L1935.84,226.867L1935.65,226.74L1935.46,226.617L1935.26,226.495L1935.07,226.373L1934.87,226.256L1934.67,226.141L1934.48,226.028L1934.27,225.918L1934.07,225.809L1933.87,225.704L1933.66,225.601L1933.46,225.5L1933.25,225.401L1933.04,225.305L1932.83,225.212L1932.62,225.121L1932.41,225.033L1932.2,224.947L1931.98,224.863L1931.76,224.782L1931.55,224.704L1931.33,224.629L1931.11,224.556L1930.89,224.486L1930.66,224.418L1930.44,224.353L1930.22,224.29L1929.99,224.231L1929.77,224.174L1929.54,224.12L1929.31,224.069L1929.08,224.02L1928.85,223.974L1928.61,223.931L1928.38,223.891L1928.15,223.854L1927.91,223.819L1927.68,223.787L1927.44,223.759L1927.2,223.733L1926.96,223.71L1926.72,223.69L1926.48,223.673L1926.24,223.66L1925.99,223.649L1925.75,223.641L1925.5,223.636L1925.23,223.635L1499.6,223.635ZM1527.78,340.368L1528.07,340.379L1528.35,340.397L1528.63,340.422L1528.91,340.454L1529.19,340.493L1529.46,340.539L1529.74,340.591L1530.01,340.651L1530.28,340.716L1530.54,340.787L1530.81,340.867L1531.07,340.953L1531.33,341.045L1531.59,341.142L1531.83,341.242L1532.09,341.353L1532.33,341.468L1532.57,341.587L1532.82,341.715L1533.05,341.847L1533.28,341.983L1533.51,342.124L1533.73,342.27L1533.95,342.425L1534.17,342.586L1534.38,342.743L1534.58,342.909L1534.79,343.081L1534.99,343.257L1535.18,343.442L1535.38,343.632L1535.56,343.816L1535.74,344.013L1535.92,344.213L1536.09,344.414L1536.25,344.62L1536.41,344.827L1536.57,345.047L1536.73,345.27L1536.88,345.495L1537.02,345.724L1537.16,345.954L1537.29,346.185L1537.41,346.417L1537.53,346.665L1537.65,346.915L1537.76,347.165L1537.86,347.417L1537.96,347.67L1538.05,347.924L1538.13,348.179L1538.21,348.464L1538.29,348.734L1538.35,348.99L1538.41,349.261L1538.46,349.531L1538.51,349.817L1538.55,350.103L1538.58,350.356L1538.6,350.64L1538.62,350.938L1538.63,351.22L1538.63,351.453L1538.63,440.547L1538.63,440.78L1538.62,441.062L1538.6,441.36L1538.58,441.644L1538.55,441.897L1538.51,442.183L1538.46,442.469L1538.41,442.739L1538.35,443.01L1538.29,443.266L1538.21,443.536L1538.13,443.821L1538.05,444.076L1537.96,444.329L1537.86,444.583L1537.76,444.834L1537.65,445.085L1537.53,445.335L1537.41,445.582L1537.29,445.816L1537.15,446.047L1537.02,446.276L1536.88,446.504L1536.73,446.73L1536.57,446.953L1536.41,447.173L1536.25,447.381L1536.09,447.585L1535.92,447.787L1535.74,447.987L1535.56,448.184L1535.38,448.368L1535.18,448.558L1534.98,448.744L1534.79,448.918L1534.59,449.09L1534.38,449.258L1534.17,449.415L1533.95,449.575L1533.73,449.73L1533.51,449.875L1533.28,450.016L1533.05,450.154L1532.81,450.286L1532.57,450.412L1532.34,450.531L1532.09,450.648L1531.83,450.758L1531.59,450.859L1531.33,450.956L1531.07,451.047L1530.81,451.133L1530.54,451.212L1530.28,451.284L1530.01,451.35L1529.74,451.409L1529.46,451.461L1529.19,451.507L1528.91,451.546L1528.63,451.578L1528.35,451.603L1528.07,451.621L1527.78,451.632L1527.55,451.635L1520.45,451.635L1520.22,451.632L1519.93,451.621L1519.65,451.603L1519.37,451.578L1519.09,451.546L1518.81,451.507L1518.54,451.461L1518.27,451.409L1518,451.35L1517.72,451.283L1517.45,451.211L1517.19,451.133L1516.93,451.047L1516.67,450.958L1516.41,450.859L1516.16,450.756L1515.91,450.648L1515.66,450.531L1515.43,450.412L1515.19,450.286L1514.95,450.154L1514.72,450.016L1514.49,449.875L1514.27,449.73L1514.05,449.575L1513.83,449.415L1513.63,449.258L1513.41,449.09L1513.21,448.918L1513.02,448.744L1512.82,448.558L1512.62,448.368L1512.44,448.184L1512.26,447.987L1512.08,447.787L1511.92,447.595L1511.75,447.381L1511.58,447.163L1511.43,446.953L1511.27,446.73L1511.12,446.504L1510.98,446.276L1510.85,446.047L1510.71,445.816L1510.59,445.582L1510.47,445.335L1510.35,445.085L1510.24,444.834L1510.14,444.583L1510.04,444.329L1509.95,444.076L1509.87,443.821L1509.79,443.536L1509.71,443.266L1509.65,443.01L1509.59,442.739L1509.54,442.469L1509.5,442.199L1509.45,441.913L1509.42,441.628L1509.4,441.345L1509.38,441.062L1509.37,440.78L1509.37,440.547L1509.37,351.453L1509.37,351.22L1509.38,350.938L1509.4,350.656L1509.42,350.371L1509.45,350.087L1509.5,349.801L1509.54,349.531L1509.59,349.261L1509.65,348.99L1509.71,348.734L1509.79,348.464L1509.87,348.179L1509.95,347.924L1510.04,347.67L1510.14,347.417L1510.24,347.165L1510.35,346.915L1510.47,346.665L1510.59,346.417L1510.71,346.185L1510.84,345.954L1510.98,345.724L1511.12,345.495L1511.27,345.27L1511.43,345.047L1511.58,344.838L1511.75,344.62L1511.92,344.404L1512.08,344.213L1512.26,344.013L1512.44,343.816L1512.62,343.632L1512.82,343.442L1513.02,343.257L1513.21,343.081L1513.42,342.909L1513.62,342.743L1513.83,342.586L1514.05,342.425L1514.27,342.27L1514.49,342.124L1514.72,341.983L1514.95,341.847L1515.18,341.715L1515.43,341.587L1515.67,341.468L1515.91,341.353L1516.16,341.244L1516.41,341.142L1516.67,341.043L1516.93,340.953L1517.19,340.867L1517.45,340.789L1517.72,340.717L1517.99,340.65L1518.27,340.591L1518.54,340.539L1518.81,340.493L1519.09,340.454L1519.37,340.422L1519.65,340.397L1519.93,340.379L1520.22,340.368L1520.45,340.365L1527.55,340.365L1527.78,340.368ZM1520.5,348L1520.41,348.001L1520.32,348.005L1520.23,348.01L1520.14,348.018L1520.05,348.028L1519.97,348.04L1519.88,348.055L1519.8,348.071L1519.71,348.09L1519.63,348.11L1519.54,348.133L1519.46,348.157L1519.38,348.184L1519.3,348.213L1519.22,348.243L1519.14,348.275L1519.06,348.309L1518.98,348.345L1518.91,348.383L1518.83,348.423L1518.76,348.464L1518.69,348.507L1518.61,348.552L1518.54,348.598L1518.47,348.646L1518.41,348.696L1518.34,348.747L1518.27,348.8L1518.21,348.854L1518.15,348.91L1518.09,348.967L1518.03,349.026L1517.97,349.086L1517.91,349.147L1517.85,349.21L1517.8,349.274L1517.75,349.34L1517.7,349.406L1517.65,349.474L1517.6,349.544L1517.55,349.614L1517.51,349.686L1517.46,349.758L1517.42,349.832L1517.38,349.907L1517.35,349.983L1517.31,350.06L1517.28,350.138L1517.24,350.217L1517.21,350.297L1517.18,350.378L1517.16,350.46L1517.13,350.542L1517.11,350.626L1517.09,350.71L1517.07,350.795L1517.06,350.881L1517.04,350.967L1517.03,351.054L1517.02,351.142L1517.01,351.231L1517.01,351.32L1517,351.41L1517,351.5L1517,440.5L1517,440.59L1517.01,440.68L1517.01,440.769L1517.02,440.858L1517.03,440.946L1517.04,441.033L1517.06,441.119L1517.07,441.205L1517.09,441.29L1517.11,441.374L1517.13,441.458L1517.16,441.54L1517.18,441.622L1517.21,441.703L1517.24,441.783L1517.28,441.862L1517.31,441.94L1517.35,442.017L1517.38,442.093L1517.42,442.168L1517.46,442.242L1517.51,442.314L1517.55,442.386L1517.6,442.456L1517.65,442.526L1517.7,442.594L1517.75,442.66L1517.8,442.726L1517.85,442.79L1517.91,442.853L1517.97,442.914L1518.03,442.974L1518.09,443.033L1518.15,443.09L1518.21,443.146L1518.27,443.2L1518.34,443.253L1518.41,443.304L1518.47,443.354L1518.54,443.402L1518.61,443.448L1518.69,443.493L1518.76,443.536L1518.83,443.577L1518.91,443.617L1518.98,443.655L1519.06,443.691L1519.14,443.725L1519.22,443.757L1519.3,443.787L1519.38,443.816L1519.46,443.843L1519.54,443.867L1519.63,443.89L1519.71,443.91L1519.8,443.929L1519.88,443.945L1519.97,443.96L1520.05,443.972L1520.14,443.982L1520.23,443.99L1520.32,443.995L1520.41,443.999L1520.5,444L1527.5,444L1527.59,443.999L1527.68,443.995L1527.77,443.99L1527.86,443.982L1527.95,443.972L1528.03,443.96L1528.12,443.945L1528.2,443.929L1528.29,443.91L1528.37,443.89L1528.46,443.867L1528.54,443.843L1528.62,443.816L1528.7,443.787L1528.78,443.757L1528.86,443.725L1528.94,443.691L1529.02,443.655L1529.09,443.617L1529.17,443.577L1529.24,443.536L1529.31,443.493L1529.39,443.448L1529.46,443.402L1529.53,443.354L1529.59,443.304L1529.66,443.253L1529.73,443.2L1529.79,443.146L1529.85,443.09L1529.91,443.033L1529.97,442.974L1530.03,442.914L1530.09,442.853L1530.15,442.79L1530.2,442.726L1530.25,442.66L1530.3,442.594L1530.35,442.526L1530.4,442.456L1530.45,442.386L1530.49,442.314L1530.54,442.242L1530.58,442.168L1530.62,442.093L1530.65,442.017L1530.69,441.94L1530.73,441.862L1530.76,441.783L1530.79,441.703L1530.82,441.622L1530.84,441.54L1530.87,441.458L1530.89,441.374L1530.91,441.29L1530.93,441.205L1530.94,441.119L1530.96,441.033L1530.97,440.946L1530.98,440.858L1530.99,440.769L1531,440.68L1531,440.59L1531,440.5L1531,351.5L1531,351.41L1531,351.32L1530.99,351.231L1530.98,351.142L1530.97,351.054L1530.96,350.967L1530.94,350.881L1530.93,350.795L1530.91,350.71L1530.89,350.626L1530.87,350.542L1530.84,350.46L1530.82,350.378L1530.79,350.297L1530.76,350.217L1530.73,350.138L1530.69,350.06L1530.65,349.983L1530.62,349.907L1530.58,349.832L1530.54,349.758L1530.49,349.686L1530.45,349.614L1530.4,349.544L1530.35,349.474L1530.3,349.406L1530.25,349.34L1530.2,349.274L1530.15,349.21L1530.09,349.147L1530.03,349.086L1529.97,349.026L1529.91,348.967L1529.85,348.91L1529.79,348.854L1529.73,348.8L1529.66,348.747L1529.59,348.696L1529.53,348.646L1529.46,348.598L1529.39,348.552L1529.31,348.507L1529.24,348.464L1529.17,348.423L1529.09,348.383L1529.02,348.345L1528.94,348.309L1528.86,348.275L1528.78,348.243L1528.7,348.213L1528.62,348.184L1528.54,348.157L1528.46,348.133L1528.37,348.11L1528.29,348.09L1528.2,348.071L1528.12,348.055L1528.03,348.04L1527.95,348.028L1527.86,348.018L1527.77,348.01L1527.68,348.005L1527.59,348.001L1527.5,348L1520.5,348Z" style="fill:rgb(40,40,40);"/>
            </g>
        </g>
    </g>
</svg>
